<svg xmlns="http://www.w3.org/2000/svg" width="1080" height="1080" viewBox="0 0 1080 1080" version="1.1"><path d="M 485.500 1.092 C 416.803 8.878, 357.610 26.156, 298.870 55.567 C 225.713 92.197, 162.053 144.810, 111.671 210.280 C 71.657 262.276, 40.113 324.544, 22.010 387.271 C -11.680 504.008, -5.930 626.899, 38.467 739 C 45.730 757.340, 62.356 791.598, 72.472 809.070 C 153.653 949.280, 294.590 1046.972, 452.549 1072.525 C 491.022 1078.749, 500.641 1079.501, 541.500 1079.478 C 579.886 1079.456, 580.870 1079.405, 604 1076.223 C 641.347 1071.085, 665.858 1065.995, 695 1057.328 C 805.953 1024.328, 903.818 956.217, 973.501 863.500 C 1031.856 785.856, 1068.284 693.492, 1078.412 597.500 C 1081.857 564.848, 1081.144 498.603, 1077.021 468.161 C 1061.755 355.478, 1014.069 254.414, 936.806 170.998 C 919.061 151.841, 883.588 119, 880.639 119 C 880.287 119, 880 120.771, 880 122.935 C 880 125.099, 879.517 128.137, 878.926 129.685 C 878.336 131.233, 877.436 135.650, 876.928 139.500 C 876.419 143.350, 875.326 150.100, 874.499 154.500 C 873.672 158.900, 872.546 165.425, 871.996 169 C 871.446 172.575, 870.561 177.525, 870.031 180 C 869.500 182.475, 868.349 188.775, 867.472 194 C 866.596 199.225, 865.401 205.691, 864.816 208.370 C 864.232 211.048, 863.346 215.998, 862.847 219.370 C 860.670 234.094, 860.187 237.030, 859.186 241.630 C 858.603 244.309, 857.381 251, 856.472 256.500 C 855.562 262, 854.355 268.672, 853.791 271.326 C 853.226 273.980, 852.378 278.705, 851.906 281.826 C 851.433 284.947, 850.358 291.325, 849.516 296 C 848.674 300.675, 847.562 307.445, 847.045 311.045 C 846.529 314.645, 845.632 318.837, 845.053 320.360 C 842.498 327.081, 844.988 337.799, 850.553 344.037 C 851.307 344.882, 852.860 347.582, 854.005 350.037 C 855.149 352.491, 857.172 356.300, 858.500 358.500 C 859.827 360.700, 860.933 363.288, 860.957 364.250 C 860.980 365.212, 861.337 366.005, 861.750 366.011 C 862.163 366.018, 863.258 367.705, 864.184 369.761 C 871.291 385.538, 874.272 392.326, 875.929 396.500 C 876.366 397.600, 877.460 400.203, 878.361 402.284 C 879.263 404.365, 880 406.926, 880 407.975 C 880 409.024, 880.415 410.139, 880.923 410.452 C 881.431 410.766, 882.163 412.466, 882.550 414.229 C 882.937 415.992, 883.623 418.124, 884.075 418.967 C 884.780 420.286, 886.559 426.119, 890.029 438.500 C 891 441.961, 893.338 451.454, 894.838 458.023 C 895.406 460.511, 896.184 464.908, 896.567 467.795 C 896.950 470.683, 897.654 473.286, 898.132 473.581 C 898.609 473.877, 899 475.843, 899 477.952 C 899 480.061, 899.655 485.097, 900.456 489.143 C 901.257 493.189, 902.121 499.650, 902.376 503.500 C 902.631 507.350, 903.382 515.900, 904.045 522.500 C 905.368 535.664, 904.844 566.471, 903.042 581.500 C 902.449 586.450, 901.460 595, 900.845 600.500 C 900.230 606, 899.315 612.525, 898.811 615 C 898.308 617.475, 897.231 622.875, 896.418 627 C 893.904 639.767, 893.340 642.249, 891.082 650.500 C 886.730 666.399, 878.684 690.041, 874.065 700.500 C 872.850 703.250, 871.265 706.850, 870.543 708.500 C 869.820 710.150, 867.377 715.428, 865.114 720.229 C 862.851 725.031, 861 729.135, 861 729.351 C 861 731.055, 838.265 768.799, 831.395 778.500 C 829.447 781.250, 827.099 784.568, 826.177 785.874 C 823.453 789.728, 812.855 803.132, 808 808.861 C 802.755 815.051, 774.328 844.018, 768.554 849.057 C 766.384 850.950, 761.838 854.750, 758.452 857.500 C 755.067 860.250, 747 867, 740.527 872.500 C 734.053 878, 725.725 884.975, 722.020 888 C 715.857 893.032, 706.364 901.033, 703.619 903.510 C 703.004 904.066, 696.200 909.713, 688.500 916.060 C 671.684 929.921, 663.377 936.070, 658 938.638 C 657.175 939.032, 656.275 939.612, 656 939.927 C 654.878 941.212, 643.135 948.893, 638 951.700 C 634.975 953.354, 630.238 956.052, 627.474 957.695 C 621.675 961.144, 597.641 972.837, 591 975.441 C 588.525 976.411, 585.658 977.647, 584.629 978.187 C 582.269 979.425, 568.105 984.612, 561.500 986.657 C 558.750 987.508, 554.925 988.775, 553 989.471 C 546.945 991.662, 541.623 993.309, 538 994.113 C 536.075 994.541, 531.575 995.618, 528 996.507 C 521.043 998.236, 509.715 1000.630, 504 1001.577 C 502.075 1001.897, 497.125 1002.772, 493 1003.521 C 488.875 1004.271, 482.350 1005.153, 478.500 1005.482 C 474.650 1005.810, 466.550 1006.503, 460.500 1007.023 C 434.046 1009.295, 390.005 1007.207, 365 1002.495 C 360.325 1001.614, 353.575 1000.437, 350 999.880 C 346.425 999.322, 343.072 998.447, 342.550 997.933 C 342.027 997.420, 340.422 997, 338.982 997 C 336.536 997, 334.209 996.433, 320 992.373 C 309.925 989.494, 296.512 984.859, 295.550 983.924 C 295.027 983.416, 293.843 983, 292.917 983 C 291.393 983, 271.396 975.277, 267.228 973.078 C 266.277 972.577, 260.325 969.687, 254 966.656 C 241.453 960.643, 226.272 952.307, 224.179 950.279 C 223.452 949.576, 222.369 949, 221.773 949 C 221.177 949, 219.214 947.875, 217.411 946.500 C 215.608 945.125, 213.875 944, 213.558 944 C 213.242 944, 211.240 942.763, 209.109 941.250 C 206.979 939.738, 204.225 937.825, 202.989 937 C 197.287 933.195, 185.146 924.331, 181.847 921.564 C 179.837 919.879, 174.684 915.575, 170.395 912 C 158.404 902.004, 132.471 875.842, 121.426 862.597 C 115.967 856.051, 108.462 847.062, 104.750 842.621 C 101.037 838.181, 98 833.780, 98 832.841 C 98 831.902, 100.137 829.416, 102.749 827.317 C 105.360 825.218, 108.009 823.050, 108.635 822.500 C 120.729 811.867, 131.309 803.406, 134.625 801.714 C 136.632 800.690, 142.329 800.084, 153.500 799.707 C 162.300 799.410, 172.425 798.666, 176 798.053 C 179.575 797.441, 186.550 796.253, 191.500 795.414 C 202.252 793.592, 212.489 791.430, 220 789.395 C 223.025 788.575, 227.300 787.430, 229.500 786.849 C 231.700 786.268, 235.300 785.195, 237.500 784.464 C 249.467 780.488, 262.051 777, 264.427 777 C 265.914 777, 267.903 776.587, 268.846 776.082 C 269.789 775.578, 273.697 774.689, 277.530 774.107 C 283.777 773.159, 293.038 771.309, 303 769.017 C 308.859 767.669, 325.373 762.884, 327.500 761.918 C 328.600 761.418, 332.200 760.155, 335.500 759.112 C 338.800 758.069, 342.625 756.766, 344 756.217 C 345.375 755.668, 348.525 754.438, 351 753.483 C 356.366 751.414, 359.629 750.015, 367.100 746.577 C 370.179 745.160, 373.415 744, 374.291 744 C 375.166 744, 376.144 743.575, 376.465 743.056 C 376.786 742.537, 381.650 739.842, 387.274 737.066 C 399.372 731.095, 411.449 724.520, 415.154 721.887 C 416.614 720.849, 418.160 720, 418.590 720 C 419.654 720, 431.675 712.150, 445.259 702.585 C 451.442 698.231, 459.425 692.629, 463 690.135 C 466.575 687.642, 470.134 684.976, 470.909 684.213 C 471.684 683.449, 474.802 680.951, 477.838 678.662 C 480.874 676.373, 485.190 672.776, 487.429 670.668 C 489.668 668.561, 495.550 663.493, 500.500 659.408 C 517.437 645.429, 525.731 638.498, 531.114 633.823 C 537.072 628.650, 560.808 608.763, 568.501 602.500 C 571.204 600.300, 575.234 596.909, 577.457 594.965 C 586.580 586.988, 603.700 572.791, 616.440 562.640 C 621.851 558.328, 666 514.221, 666 513.127 C 666 512.642, 666.686 511.676, 667.524 510.980 C 671.735 507.486, 693.316 479.308, 703.507 464 C 706.253 459.875, 708.837 456.350, 709.250 456.167 C 709.663 455.983, 710 455.493, 710 455.076 C 710 454.659, 713.391 448.509, 717.536 441.409 C 724.785 428.991, 738 403.057, 738 401.249 C 738 400.768, 739.125 398.042, 740.500 395.192 C 741.875 392.342, 743.003 389.670, 743.006 389.255 C 743.010 388.840, 743.589 387.375, 744.295 386 C 746.050 382.580, 748.403 375.770, 750.515 368 C 751.486 364.425, 752.893 359.572, 753.641 357.215 C 754.388 354.858, 755 349.715, 755 345.786 C 755 341.857, 755.426 337.260, 755.946 335.571 C 756.916 332.421, 758.359 323.864, 760.004 311.500 C 760.516 307.650, 761.391 301.575, 761.947 298 C 762.504 294.425, 762.969 288.980, 762.980 285.899 C 762.991 282.819, 763.454 278.994, 764.010 277.399 C 764.565 275.805, 765.479 271.350, 766.041 267.500 C 766.602 263.650, 767.518 257.355, 768.076 253.510 C 768.662 249.478, 770.130 244.748, 771.545 242.332 C 773.023 239.812, 774 236.582, 774 234.221 C 774 232.064, 774.454 228.994, 775.010 227.399 C 775.565 225.805, 776.448 221.575, 776.972 218 C 777.495 214.425, 778.615 207.675, 779.459 203 C 780.304 198.325, 781.400 191.703, 781.896 188.284 C 782.392 184.866, 783.266 179.916, 783.838 177.284 C 784.411 174.653, 785.596 168.225, 786.472 163 C 787.349 157.775, 788.500 151.475, 789.031 149 C 789.561 146.525, 790.483 141.350, 791.078 137.500 C 793.668 120.744, 794.089 118.339, 795.013 115.013 C 795.550 113.081, 795.991 109.839, 795.994 107.809 C 795.997 105.779, 796.539 103.785, 797.197 103.378 C 798.761 102.412, 807.156 102.876, 811.269 104.156 C 813.046 104.709, 817.200 105.541, 820.500 106.004 C 823.800 106.467, 830.438 107.556, 835.250 108.423 C 840.063 109.290, 847.938 110.710, 852.750 111.577 C 857.563 112.444, 864.200 113.519, 867.500 113.964 C 870.800 114.410, 874.400 115.139, 875.500 115.585 C 880.143 117.465, 860.603 102.415, 844 91.322 C 820.325 75.505, 799.995 63.797, 776.451 52.421 C 724.072 27.112, 675.769 12.512, 612.500 2.863 C 599.772 0.921, 593.731 0.703, 546 0.456 C 517.125 0.307, 489.900 0.593, 485.500 1.092 M 0.407 539 C 0.407 548.075, 0.559 551.788, 0.744 547.250 C 0.929 542.712, 0.929 535.288, 0.744 530.750 C 0.559 526.212, 0.407 529.925, 0.407 539" stroke="none" fill="#ffffff" fill-rule="evenodd"/><path d="M 798.154 106.123 C 797.663 107.430, 796.484 113.450, 795.533 119.500 C 794.582 125.550, 793.412 132.075, 792.932 134 C 792.453 135.925, 791.616 140.425, 791.073 144 C 790.161 150.012, 786.186 172.747, 782.507 193 C 781.658 197.675, 780.538 204.200, 780.019 207.500 C 779.499 210.800, 778.356 217.325, 777.478 222 C 776.601 226.675, 775.443 233.128, 774.905 236.341 C 774.367 239.553, 773.244 243.225, 772.408 244.499 C 770.316 247.694, 764.756 278.792, 763.023 297 C 761.868 309.142, 760.446 319.586, 759.075 326 C 757.075 335.353, 755.980 343.685, 756.052 349 C 756.097 352.344, 755.084 357.832, 753.469 363 C 752.008 367.675, 750.418 373.075, 749.935 375 C 749.452 376.925, 746.991 383.450, 744.467 389.500 C 741.943 395.550, 739.380 401.850, 738.771 403.500 C 737.001 408.302, 723.377 434.893, 719.046 442 C 716.867 445.575, 714.325 449.843, 713.395 451.484 C 710.485 456.627, 696.646 477.291, 692.959 482 C 678.579 500.369, 668.748 512.500, 664.598 517 C 656.457 525.826, 627.922 554.247, 622.877 558.554 C 612.430 567.471, 606.488 572.475, 581.974 593 C 567.851 604.825, 544.262 624.625, 529.555 637 C 514.847 649.375, 499.621 662.094, 495.719 665.263 C 491.816 668.433, 487.019 672.483, 485.057 674.263 C 479.567 679.246, 468.362 688.104, 459.317 694.612 C 445.091 704.849, 419.504 722, 418.459 722 C 418.188 722, 414.699 723.983, 410.705 726.407 C 400.505 732.600, 366.713 748.942, 353 754.314 C 325.023 765.275, 300.210 772.223, 272 776.998 C 265.675 778.068, 256 780.322, 250.500 782.006 C 229.064 788.570, 223.066 790.242, 211 793.017 C 192.111 797.361, 174.542 799.903, 153.421 801.350 L 134.342 802.656 121.421 813.610 C 114.314 819.635, 106.588 826.088, 104.250 827.950 C 101.912 829.811, 100 832.113, 100 833.065 C 100 834.761, 101.992 837.276, 122.723 861.746 C 159.241 904.851, 202.546 939.190, 251 963.462 C 256.225 966.079, 261.175 968.624, 262 969.117 C 262.825 969.610, 264.175 970.285, 265 970.619 C 265.825 970.952, 270.775 973.017, 276 975.208 C 281.225 977.398, 287.525 979.845, 290 980.646 C 292.475 981.446, 295.400 982.486, 296.500 982.957 C 304.443 986.359, 329.595 993.621, 345 996.960 C 350.225 998.092, 356.525 999.470, 359 1000.021 C 382.658 1005.292, 429.663 1007.747, 462 1005.400 C 479.465 1004.132, 482.756 1003.707, 503.500 1000.033 C 545.797 992.543, 584.659 978.932, 623 958.179 C 644.151 946.730, 646.974 944.951, 669.500 928.876 C 679.039 922.069, 704.407 901.143, 759.057 855 C 786.830 831.550, 813.116 802.608, 832.170 774.500 C 851.737 745.635, 863.628 722.809, 878.013 686.500 C 878.449 685.400, 880.161 680.450, 881.816 675.500 C 893.209 641.446, 899.840 608.262, 901.999 574.500 C 905.125 525.632, 900.785 483.393, 887.819 436.500 C 886.147 430.450, 884.425 424.600, 883.993 423.500 C 883.562 422.400, 881.313 416.100, 878.996 409.500 C 876.679 402.900, 874.192 396.150, 873.468 394.500 C 872.745 392.850, 870.710 388.125, 868.948 384 C 865.118 375.035, 851.676 348.894, 846.611 340.559 C 842.624 333.998, 842.051 329.152, 844.048 318.886 C 844.625 315.924, 846.186 307.034, 847.518 299.132 C 848.850 291.230, 850.169 284.030, 850.448 283.132 C 850.727 282.234, 851.391 278.575, 851.924 275 C 852.456 271.425, 853.604 264.675, 854.474 260 C 855.345 255.325, 856.925 246.550, 857.986 240.500 C 859.047 234.450, 860.866 224.100, 862.028 217.500 C 863.191 210.900, 864.761 201.900, 865.516 197.500 C 866.272 193.100, 867.617 185.450, 868.504 180.500 C 879.701 118.045, 879.852 116.904, 877.177 114.812 C 875.642 113.611, 875.627 113.662, 877 115.412 C 878.869 117.794, 882.448 118.280, 833.500 109.504 C 797.368 103.026, 799.250 103.206, 798.154 106.123 M 922 155.500 C 927.203 160.725, 931.685 165, 931.960 165 C 932.235 165, 928.203 160.725, 923 155.500 C 917.797 150.275, 913.315 146, 913.040 146 C 912.765 146, 916.797 150.275, 922 155.500 M 772.659 352.750 C 772.406 353.163, 771.888 356.200, 771.507 359.500 C 770.632 367.068, 766.492 387.756, 764.402 395 C 760.555 408.331, 756.585 420.575, 755.825 421.450 C 755.371 421.972, 755 423.216, 755 424.214 C 755 425.211, 754.589 426.809, 754.086 427.764 C 753.583 428.719, 752.177 431.975, 750.963 435 C 740.474 461.118, 722.300 492.948, 703.098 518.828 C 697.927 525.798, 693.420 531.725, 693.082 532 C 692.744 532.275, 691.180 534.075, 689.605 536 C 676.641 551.850, 656.967 572.278, 642.500 584.907 C 632.717 593.447, 620.330 603.901, 579.095 638.419 C 567.872 647.814, 552.122 661.039, 544.095 667.810 C 536.068 674.580, 525.225 683.644, 520 687.952 C 514.775 692.259, 509.600 696.620, 508.500 697.642 C 499.280 706.208, 467.968 729.047, 454.008 737.389 C 425.835 754.224, 406.852 763.593, 382.554 772.655 C 358.492 781.630, 333.657 788.599, 317.294 790.969 C 313.007 791.590, 307.025 792.524, 304 793.045 C 287.822 795.829, 257.595 796.735, 239.524 794.979 C 234.037 794.445, 228.742 794.264, 227.758 794.577 C 226.080 795.110, 226.101 795.333, 228.101 798.142 C 229.275 799.790, 235.582 807.514, 242.117 815.306 C 248.653 823.097, 254 830.001, 254 830.647 C 254 831.293, 251.863 833.631, 249.250 835.843 C 244.430 839.924, 215.315 864.435, 200.250 877.094 C 193.198 883.020, 192.161 884.279, 193.110 885.764 C 195.339 889.249, 222.956 909.481, 238.500 919.015 C 256.567 930.096, 284.664 943.998, 300 949.443 C 324.916 958.289, 332.391 960.476, 355 965.534 C 388.540 973.038, 432.548 975.585, 466 971.958 C 475.625 970.915, 485.075 969.804, 487 969.491 C 504.132 966.703, 510.997 965.359, 520.500 962.932 C 537.381 958.621, 553.660 953.544, 560.651 950.412 C 562.384 949.635, 564.303 949, 564.915 949 C 565.527 949, 566.809 948.566, 567.764 948.035 C 569.947 946.822, 578.736 943, 579.343 943 C 580.675 943, 604.250 931.237, 612.692 926.359 C 618.087 923.243, 624.047 919.822, 625.938 918.758 C 635.311 913.483, 666.739 890.765, 670 886.909 C 670.457 886.368, 674.551 882.921, 700 861.642 C 718.713 845.997, 741.825 826.511, 747.439 821.646 C 754.063 815.907, 774.555 795.144, 778.169 790.511 C 779.451 788.866, 781.193 786.824, 782.039 785.971 C 784.783 783.209, 794.735 770.461, 801.247 761.369 C 813.100 744.820, 827.456 720.456, 835.051 704 C 837.919 697.786, 848.097 673.056, 849.044 670 C 849.470 668.625, 851.244 663, 852.987 657.500 C 858.815 639.104, 863.989 616.996, 866.009 601.862 C 875.703 529.243, 868.055 468.432, 840.810 401.500 C 838.380 395.530, 824.642 367.823, 821.895 363.349 C 819.580 359.580, 818.907 359.291, 808 357.378 C 803.325 356.558, 794.550 355.017, 788.500 353.954 C 776.501 351.845, 773.359 351.606, 772.659 352.750 M 931.971 912.750 L 925.500 919.500 932.250 913.029 C 938.520 907.018, 939.457 906, 938.721 906 C 938.568 906, 935.530 909.038, 931.971 912.750 M 150.500 914 C 153.766 917.300, 156.662 920, 156.937 920 C 157.212 920, 154.766 917.300, 151.500 914 C 148.234 910.700, 145.338 908, 145.063 908 C 144.788 908, 147.234 910.700, 150.500 914 M 912.971 931.750 L 906.500 938.500 913.250 932.029 C 916.962 928.470, 920 925.432, 920 925.279 C 920 924.543, 918.982 925.480, 912.971 931.750 M 234 1076.003 L -0.500 1076.506 238.917 1076.753 C 370.596 1076.889, 478.146 1076.838, 477.917 1076.641 C 476.719 1075.609, 450.181 1075.539, 234 1076.003 M 607.500 1076.108 C 605.300 1076.443, 710.825 1076.671, 842 1076.615 C 973.175 1076.560, 1050.575 1076.399, 1014 1076.258 C 853.962 1075.641, 611.161 1075.552, 607.500 1076.108" stroke="none" fill="#000000" fill-rule="evenodd"/><path d="M 797.008 103.392 C 796.454 103.946, 795.997 105.998, 795.994 107.950 C 795.991 109.903, 795.550 113.081, 795.013 115.013 C 794.089 118.339, 793.668 120.744, 791.078 137.500 C 790.483 141.350, 789.561 146.525, 789.031 149 C 788.500 151.475, 787.349 157.775, 786.472 163 C 785.596 168.225, 784.411 174.653, 783.838 177.284 C 783.266 179.916, 782.392 184.866, 781.896 188.284 C 781.400 191.703, 780.304 198.325, 779.459 203 C 778.615 207.675, 777.495 214.425, 776.972 218 C 776.448 221.575, 775.565 225.805, 775.010 227.399 C 774.454 228.994, 774 232.064, 774 234.221 C 774 236.582, 773.023 239.812, 771.545 242.332 C 770.130 244.748, 768.662 249.478, 768.076 253.510 C 767.518 257.355, 766.602 263.650, 766.041 267.500 C 765.479 271.350, 764.565 275.805, 764.010 277.399 C 763.454 278.994, 763.072 283.269, 763.160 286.899 C 763.248 290.530, 763.485 291.925, 763.687 290 C 763.889 288.075, 764.724 282.450, 765.542 277.500 C 769.269 254.965, 770.999 246.650, 772.408 244.499 C 773.244 243.225, 774.367 239.553, 774.905 236.341 C 775.443 233.128, 776.601 226.675, 777.478 222 C 778.356 217.325, 779.499 210.800, 780.019 207.500 C 780.538 204.200, 781.658 197.675, 782.507 193 C 786.186 172.747, 790.161 150.012, 791.073 144 C 791.616 140.425, 792.453 135.925, 792.932 134 C 793.412 132.075, 794.582 125.550, 795.533 119.500 C 796.484 113.450, 797.663 107.430, 798.154 106.123 C 799.157 103.455, 799.545 103.461, 816 106.403 C 820.675 107.239, 826.975 108.359, 830 108.892 C 839 110.478, 871.222 116.221, 875 116.912 C 880.008 117.829, 880.362 114.362, 868.504 180.500 C 867.617 185.450, 866.272 193.100, 865.516 197.500 C 864.761 201.900, 863.229 210.675, 862.114 217 C 860.998 223.325, 859.179 233.675, 858.071 240 C 856.963 246.325, 855.345 255.325, 854.474 260 C 853.604 264.675, 852.456 271.425, 851.924 275 C 851.391 278.575, 850.727 282.234, 850.448 283.132 C 850.169 284.030, 848.850 291.230, 847.518 299.132 C 846.186 307.034, 844.625 315.924, 844.048 318.886 C 842.051 329.152, 842.624 333.998, 846.611 340.559 C 851.676 348.894, 865.118 375.035, 868.948 384 C 870.710 388.125, 872.745 392.850, 873.468 394.500 C 874.192 396.150, 876.679 402.900, 878.996 409.500 C 881.313 416.100, 883.562 422.400, 883.993 423.500 C 885.175 426.512, 890.593 446.363, 892.863 456 C 906.547 514.087, 906.354 578.464, 892.317 639 C 889.473 651.263, 881.552 677.568, 878.013 686.500 C 863.628 722.809, 851.737 745.635, 832.170 774.500 C 813.116 802.608, 786.830 831.550, 759.057 855 C 680.685 921.172, 664.529 933.972, 643 946.952 C 598.482 973.793, 552.173 991.414, 503.500 1000.033 C 482.756 1003.707, 479.465 1004.132, 462 1005.400 C 429.663 1007.747, 382.658 1005.292, 359 1000.021 C 356.525 999.470, 350.225 998.092, 345 996.960 C 329.595 993.621, 304.443 986.359, 296.500 982.957 C 295.400 982.486, 292.475 981.446, 290 980.646 C 284.731 978.942, 266.181 971.295, 264 969.928 C 263.175 969.410, 261.825 968.723, 261 968.400 C 254.373 965.808, 226.712 950.619, 215 943.141 C 200.543 933.911, 181.580 919.664, 167.119 907.169 C 156.326 897.843, 133.638 874.630, 122.723 861.746 C 101.992 837.276, 100 834.761, 100 833.065 C 100 832.113, 101.912 829.811, 104.250 827.950 C 106.588 826.088, 114.314 819.635, 121.421 813.610 L 134.342 802.656 153.421 801.350 C 174.542 799.903, 192.111 797.361, 211 793.017 C 223.066 790.242, 229.064 788.570, 250.500 782.006 C 256 780.322, 265.675 778.068, 272 776.998 C 300.210 772.223, 325.023 765.275, 353 754.314 C 366.713 748.942, 400.505 732.600, 410.705 726.407 C 414.699 723.983, 418.188 722, 418.459 722 C 419.504 722, 445.091 704.849, 459.317 694.612 C 468.362 688.104, 479.567 679.246, 485.057 674.263 C 487.019 672.483, 491.816 668.433, 495.719 665.263 C 499.621 662.094, 514.847 649.375, 529.555 637 C 544.262 624.625, 567.851 604.825, 581.974 593 C 606.488 572.475, 612.430 567.471, 622.877 558.554 C 627.922 554.247, 656.457 525.826, 664.598 517 C 668.748 512.500, 678.579 500.369, 692.959 482 C 696.646 477.291, 710.485 456.627, 713.395 451.484 C 714.325 449.843, 716.867 445.575, 719.046 442 C 723.377 434.893, 737.001 408.302, 738.771 403.500 C 739.380 401.850, 741.943 395.550, 744.467 389.500 C 746.991 383.450, 749.452 376.925, 749.935 375 C 750.418 373.075, 751.976 367.722, 753.397 363.104 C 754.940 358.092, 756.177 351.241, 756.466 346.104 C 756.733 341.372, 757.367 335.025, 757.877 332 C 758.386 328.975, 759.310 323.350, 759.929 319.500 C 760.549 315.650, 761.493 310.581, 762.028 308.236 C 762.563 305.890, 762.944 301.615, 762.875 298.736 L 762.750 293.500 761.862 299 C 761.373 302.025, 760.546 307.650, 760.023 311.500 C 758.283 324.312, 756.902 332.468, 755.946 335.571 C 755.426 337.260, 755 341.857, 755 345.786 C 755 349.715, 754.388 354.858, 753.641 357.215 C 752.893 359.572, 751.486 364.425, 750.515 368 C 748.403 375.770, 746.050 382.580, 744.295 386 C 743.589 387.375, 743.010 388.840, 743.006 389.255 C 743.003 389.670, 741.875 392.342, 740.500 395.192 C 739.125 398.042, 738 400.768, 738 401.249 C 738 403.057, 724.785 428.991, 717.536 441.409 C 713.391 448.509, 710 454.659, 710 455.076 C 710 455.493, 709.663 455.983, 709.250 456.167 C 708.837 456.350, 706.253 459.875, 703.507 464 C 693.316 479.308, 671.735 507.486, 667.524 510.980 C 666.686 511.676, 666 512.642, 666 513.127 C 666 514.221, 621.851 558.328, 616.440 562.640 C 603.700 572.791, 586.580 586.988, 577.457 594.965 C 575.234 596.909, 571.204 600.300, 568.501 602.500 C 560.808 608.763, 537.072 628.650, 531.114 633.823 C 525.731 638.498, 517.437 645.429, 500.500 659.408 C 495.550 663.493, 489.668 668.561, 487.429 670.668 C 485.190 672.776, 480.874 676.373, 477.838 678.662 C 474.802 680.951, 471.684 683.449, 470.909 684.213 C 470.134 684.976, 466.575 687.642, 463 690.135 C 459.425 692.629, 451.442 698.231, 445.259 702.585 C 431.675 712.150, 419.654 720, 418.590 720 C 418.160 720, 416.614 720.849, 415.154 721.887 C 411.449 724.520, 399.372 731.095, 387.274 737.066 C 381.650 739.842, 376.786 742.537, 376.465 743.056 C 376.144 743.575, 375.166 744, 374.291 744 C 373.415 744, 370.179 745.160, 367.100 746.577 C 359.629 750.015, 356.366 751.414, 351 753.483 C 348.525 754.438, 345.375 755.668, 344 756.217 C 342.625 756.766, 338.800 758.069, 335.500 759.112 C 332.200 760.155, 328.600 761.418, 327.500 761.918 C 325.373 762.884, 308.859 767.669, 303 769.017 C 293.038 771.309, 283.777 773.159, 277.530 774.107 C 273.697 774.689, 269.789 775.578, 268.846 776.082 C 267.903 776.587, 265.914 777, 264.427 777 C 262.051 777, 249.467 780.488, 237.500 784.464 C 235.300 785.195, 231.700 786.268, 229.500 786.849 C 227.300 787.430, 223.025 788.575, 220 789.395 C 212.489 791.430, 202.252 793.592, 191.500 795.414 C 186.550 796.253, 179.575 797.441, 176 798.053 C 172.425 798.666, 162.300 799.410, 153.500 799.707 C 142.329 800.084, 136.632 800.690, 134.625 801.714 C 131.309 803.406, 120.729 811.867, 108.635 822.500 C 108.009 823.050, 105.360 825.218, 102.749 827.317 C 100.137 829.416, 98 831.902, 98 832.841 C 98 833.780, 101.037 838.181, 104.750 842.621 C 108.462 847.062, 115.967 856.051, 121.426 862.597 C 132.471 875.842, 158.404 902.004, 170.395 912 C 174.684 915.575, 179.837 919.879, 181.847 921.564 C 185.146 924.331, 197.287 933.195, 202.989 937 C 204.225 937.825, 206.979 939.737, 209.109 941.250 C 211.240 942.762, 213.242 944, 213.558 944 C 213.875 944, 215.608 945.125, 217.411 946.500 C 219.214 947.875, 221.177 949, 221.773 949 C 222.369 949, 223.452 949.576, 224.179 950.279 C 226.272 952.307, 241.453 960.643, 254 966.656 C 260.325 969.687, 266.277 972.577, 267.228 973.078 C 271.396 975.277, 291.393 983, 292.917 983 C 293.843 983, 295.027 983.416, 295.550 983.924 C 296.512 984.859, 309.925 989.494, 320 992.373 C 334.209 996.433, 336.536 997, 338.982 997 C 340.422 997, 342.027 997.420, 342.550 997.933 C 343.072 998.447, 346.425 999.322, 350 999.880 C 353.575 1000.437, 360.325 1001.614, 365 1002.495 C 390.005 1007.207, 434.046 1009.295, 460.500 1007.023 C 466.550 1006.503, 474.650 1005.810, 478.500 1005.482 C 482.350 1005.153, 488.875 1004.271, 493 1003.521 C 497.125 1002.772, 502.075 1001.897, 504 1001.577 C 509.715 1000.630, 521.043 998.236, 528 996.507 C 531.575 995.618, 536.075 994.541, 538 994.113 C 541.623 993.309, 546.945 991.662, 553 989.471 C 554.925 988.775, 558.750 987.508, 561.500 986.657 C 568.105 984.612, 582.269 979.425, 584.629 978.187 C 585.658 977.647, 588.525 976.411, 591 975.441 C 597.641 972.837, 621.675 961.144, 627.474 957.695 C 630.238 956.052, 634.975 953.354, 638 951.700 C 643.135 948.893, 654.878 941.212, 656 939.927 C 656.275 939.612, 657.175 939.032, 658 938.638 C 663.377 936.070, 671.684 929.921, 688.500 916.060 C 696.200 909.713, 703.004 904.066, 703.619 903.510 C 706.364 901.033, 715.857 893.032, 722.020 888 C 725.725 884.975, 734.053 878, 740.527 872.500 C 747 867, 755.067 860.250, 758.452 857.500 C 761.838 854.750, 766.384 850.950, 768.554 849.057 C 774.328 844.018, 802.755 815.051, 808 808.861 C 812.855 803.132, 823.453 789.728, 826.177 785.874 C 827.099 784.568, 829.447 781.250, 831.395 778.500 C 838.265 768.799, 861 731.055, 861 729.351 C 861 729.135, 862.851 725.031, 865.114 720.229 C 867.377 715.428, 869.820 710.150, 870.543 708.500 C 871.265 706.850, 872.850 703.250, 874.065 700.500 C 878.684 690.041, 886.730 666.399, 891.082 650.500 C 893.340 642.249, 893.904 639.767, 896.418 627 C 897.231 622.875, 898.308 617.475, 898.811 615 C 899.315 612.525, 900.230 606, 900.845 600.500 C 901.460 595, 902.449 586.450, 903.042 581.500 C 904.844 566.471, 905.368 535.664, 904.045 522.500 C 903.382 515.900, 902.631 507.350, 902.376 503.500 C 902.121 499.650, 901.257 493.189, 900.456 489.143 C 899.655 485.097, 899 480.061, 899 477.952 C 899 475.843, 898.609 473.877, 898.132 473.581 C 897.654 473.286, 896.950 470.683, 896.567 467.795 C 896.184 464.908, 895.406 460.511, 894.838 458.023 C 893.338 451.454, 891 441.961, 890.029 438.500 C 886.559 426.119, 884.780 420.286, 884.075 418.967 C 883.623 418.124, 882.937 415.992, 882.550 414.229 C 882.163 412.466, 881.431 410.766, 880.923 410.452 C 880.415 410.139, 880 409.024, 880 407.975 C 880 406.926, 879.363 404.590, 878.583 402.784 C 877.804 400.978, 876.424 397.700, 875.516 395.500 C 873.040 389.502, 871.469 385.933, 864.184 369.761 C 863.258 367.705, 862.163 366.018, 861.750 366.011 C 861.337 366.005, 860.980 365.212, 860.957 364.250 C 860.933 363.288, 859.827 360.700, 858.500 358.500 C 857.172 356.300, 855.149 352.491, 854.005 350.037 C 852.860 347.582, 851.307 344.882, 850.553 344.037 C 844.988 337.799, 842.498 327.081, 845.053 320.360 C 845.632 318.837, 846.529 314.645, 847.045 311.045 C 847.562 307.445, 848.674 300.675, 849.516 296 C 850.358 291.325, 851.433 284.947, 851.906 281.826 C 852.378 278.705, 853.226 273.980, 853.791 271.326 C 854.355 268.672, 855.562 262, 856.472 256.500 C 857.381 251, 858.603 244.309, 859.186 241.630 C 859.769 238.952, 860.641 234.114, 861.123 230.880 C 861.605 227.646, 862.395 222.354, 862.877 219.120 C 863.359 215.886, 864.232 211.048, 864.816 208.370 C 865.401 205.691, 866.596 199.225, 867.472 194 C 868.349 188.775, 869.500 182.475, 870.031 180 C 870.561 177.525, 871.446 172.575, 871.996 169 C 872.546 165.425, 873.672 158.900, 874.499 154.500 C 875.326 150.100, 876.419 143.350, 876.928 139.500 C 877.436 135.650, 878.297 131.334, 878.841 129.909 C 879.385 128.484, 879.964 125.136, 880.128 122.468 C 880.402 117.999, 880.211 117.530, 877.689 116.499 C 876.184 115.884, 875.199 115.134, 875.501 114.833 C 875.802 114.532, 875.250 113.658, 874.274 112.893 C 872.669 111.633, 872.628 111.663, 873.842 113.214 C 875.083 114.797, 874.779 114.888, 869.842 114.406 C 866.904 114.119, 862.700 113.452, 860.500 112.923 C 858.300 112.395, 853.800 111.544, 850.500 111.032 C 847.200 110.520, 840.450 109.369, 835.500 108.474 C 830.550 107.578, 823.749 106.495, 820.386 106.066 C 817.024 105.637, 813.760 104.969, 813.133 104.582 C 811.036 103.286, 798.071 102.329, 797.008 103.392 M 157.469 157.250 L 151.500 163.500 157.750 157.531 C 163.556 151.987, 164.458 151, 163.719 151 C 163.564 151, 160.751 153.813, 157.469 157.250 M 772.659 352.750 C 772.406 353.163, 771.888 356.200, 771.507 359.500 C 770.632 367.068, 766.492 387.756, 764.402 395 C 760.555 408.331, 756.585 420.575, 755.825 421.450 C 755.371 421.972, 755 423.216, 755 424.214 C 755 425.211, 754.589 426.809, 754.086 427.764 C 753.583 428.719, 752.177 431.975, 750.963 435 C 740.474 461.118, 722.300 492.948, 703.098 518.828 C 697.927 525.798, 693.420 531.725, 693.082 532 C 692.744 532.275, 691.180 534.075, 689.605 536 C 676.641 551.850, 656.967 572.278, 642.500 584.907 C 632.717 593.447, 620.330 603.901, 579.095 638.419 C 567.872 647.814, 552.122 661.039, 544.095 667.810 C 536.068 674.580, 525.225 683.644, 520 687.952 C 514.775 692.259, 509.600 696.620, 508.500 697.642 C 499.280 706.208, 467.968 729.047, 454.008 737.389 C 425.835 754.224, 406.852 763.593, 382.554 772.655 C 358.492 781.630, 333.657 788.599, 317.294 790.969 C 313.007 791.590, 307.025 792.524, 304 793.045 C 287.822 795.829, 257.595 796.735, 239.524 794.979 C 234.037 794.445, 228.742 794.264, 227.758 794.577 C 226.080 795.110, 226.101 795.333, 228.101 798.142 C 229.275 799.790, 235.582 807.514, 242.117 815.306 C 248.653 823.097, 254 830.001, 254 830.647 C 254 831.293, 251.863 833.631, 249.250 835.843 C 244.430 839.924, 215.315 864.435, 200.250 877.094 C 193.198 883.020, 192.161 884.279, 193.110 885.764 C 195.339 889.249, 222.956 909.481, 238.500 919.015 C 256.567 930.096, 284.664 943.998, 300 949.443 C 324.916 958.289, 332.391 960.476, 355 965.534 C 388.540 973.038, 432.548 975.585, 466 971.958 C 475.625 970.915, 485.075 969.804, 487 969.491 C 504.132 966.703, 510.997 965.359, 520.500 962.932 C 537.381 958.621, 553.660 953.544, 560.651 950.412 C 562.384 949.635, 564.303 949, 564.915 949 C 565.527 949, 566.809 948.566, 567.764 948.035 C 569.947 946.822, 578.736 943, 579.343 943 C 580.675 943, 604.250 931.237, 612.692 926.359 C 618.087 923.243, 624.047 919.822, 625.938 918.758 C 635.311 913.483, 666.739 890.765, 670 886.909 C 670.457 886.368, 674.551 882.921, 700 861.642 C 718.713 845.997, 741.825 826.511, 747.439 821.646 C 754.063 815.907, 774.555 795.144, 778.169 790.511 C 779.451 788.866, 781.193 786.824, 782.039 785.971 C 784.783 783.209, 794.735 770.461, 801.247 761.369 C 813.100 744.820, 827.456 720.456, 835.051 704 C 837.919 697.786, 848.097 673.056, 849.044 670 C 849.470 668.625, 851.244 663, 852.987 657.500 C 858.815 639.104, 863.989 616.996, 866.009 601.862 C 875.703 529.243, 868.055 468.432, 840.810 401.500 C 838.380 395.530, 824.642 367.823, 821.895 363.349 C 819.580 359.580, 818.907 359.291, 808 357.378 C 803.325 356.558, 794.550 355.017, 788.500 353.954 C 776.501 351.845, 773.359 351.606, 772.659 352.750" stroke="none" fill="#fbe136" fill-rule="evenodd"/></svg>